<mxfile host="Electron" agent="Mozilla/5.0 (Windows NT 10.0; Win64; x64) AppleWebKit/537.36 (KHTML, like Gecko) draw.io/26.0.16 Chrome/132.0.6834.196 Electron/34.2.0 Safari/537.36" version="26.0.16" pages="3">
  <diagram name="A" id="BOmsx0DzZ0o8EOZLSguq">
    <mxGraphModel dx="1276" dy="606" grid="1" gridSize="10" guides="1" tooltips="1" connect="1" arrows="1" fold="1" page="1" pageScale="1" pageWidth="850" pageHeight="1100" math="0" shadow="0">
      <root>
        <mxCell id="0" />
        <mxCell id="1" parent="0" />
        <mxCell id="jG9ba4dhmV24VTE5JBVS-3" value="" style="edgeStyle=orthogonalEdgeStyle;rounded=0;orthogonalLoop=1;jettySize=auto;html=1;" parent="1" source="jG9ba4dhmV24VTE5JBVS-1" target="jG9ba4dhmV24VTE5JBVS-2" edge="1">
          <mxGeometry relative="1" as="geometry" />
        </mxCell>
        <mxCell id="jG9ba4dhmV24VTE5JBVS-1" value="Start" style="ellipse;whiteSpace=wrap;html=1;" parent="1" vertex="1">
          <mxGeometry x="360" y="270" width="120" height="80" as="geometry" />
        </mxCell>
        <mxCell id="jG9ba4dhmV24VTE5JBVS-11" value="" style="edgeStyle=orthogonalEdgeStyle;rounded=0;orthogonalLoop=1;jettySize=auto;html=1;" parent="1" source="jG9ba4dhmV24VTE5JBVS-2" target="jG9ba4dhmV24VTE5JBVS-10" edge="1">
          <mxGeometry relative="1" as="geometry" />
        </mxCell>
        <mxCell id="jG9ba4dhmV24VTE5JBVS-2" value="kesempatan = 3" style="whiteSpace=wrap;html=1;" parent="1" vertex="1">
          <mxGeometry x="360" y="440" width="120" height="60" as="geometry" />
        </mxCell>
        <mxCell id="jG9ba4dhmV24VTE5JBVS-7" value="" style="edgeStyle=orthogonalEdgeStyle;rounded=0;orthogonalLoop=1;jettySize=auto;html=1;" parent="1" source="jG9ba4dhmV24VTE5JBVS-4" target="jG9ba4dhmV24VTE5JBVS-6" edge="1">
          <mxGeometry relative="1" as="geometry" />
        </mxCell>
        <mxCell id="jG9ba4dhmV24VTE5JBVS-4" value="Masukkan username" style="shape=parallelogram;perimeter=parallelogramPerimeter;whiteSpace=wrap;html=1;fixedSize=1;" parent="1" vertex="1">
          <mxGeometry x="570" y="580" width="120" height="60" as="geometry" />
        </mxCell>
        <mxCell id="jG9ba4dhmV24VTE5JBVS-9" value="" style="edgeStyle=orthogonalEdgeStyle;rounded=0;orthogonalLoop=1;jettySize=auto;html=1;" parent="1" source="jG9ba4dhmV24VTE5JBVS-6" target="jG9ba4dhmV24VTE5JBVS-8" edge="1">
          <mxGeometry relative="1" as="geometry" />
        </mxCell>
        <mxCell id="jG9ba4dhmV24VTE5JBVS-6" value="Masukkan password" style="shape=parallelogram;perimeter=parallelogramPerimeter;whiteSpace=wrap;html=1;fixedSize=1;" parent="1" vertex="1">
          <mxGeometry x="570" y="720" width="120" height="60" as="geometry" />
        </mxCell>
        <mxCell id="jG9ba4dhmV24VTE5JBVS-21" value="no" style="edgeStyle=orthogonalEdgeStyle;rounded=0;orthogonalLoop=1;jettySize=auto;html=1;" parent="1" source="jG9ba4dhmV24VTE5JBVS-8" target="jG9ba4dhmV24VTE5JBVS-20" edge="1">
          <mxGeometry relative="1" as="geometry" />
        </mxCell>
        <mxCell id="pPu78C3oDjwlSVhks6el-1" value="yes" style="edgeStyle=orthogonalEdgeStyle;rounded=0;orthogonalLoop=1;jettySize=auto;html=1;entryX=0;entryY=0.5;entryDx=0;entryDy=0;" parent="1" source="jG9ba4dhmV24VTE5JBVS-8" target="Oiies0Q6ovY3SSplrkyP-2" edge="1">
          <mxGeometry relative="1" as="geometry" />
        </mxCell>
        <mxCell id="jG9ba4dhmV24VTE5JBVS-8" value="username == &quot;Ridwan Nur Rahman&quot; &amp;amp;&amp;amp; Password == &quot;2409106064&quot;" style="rhombus;whiteSpace=wrap;html=1;" parent="1" vertex="1">
          <mxGeometry x="530" y="850" width="200" height="160" as="geometry" />
        </mxCell>
        <mxCell id="jG9ba4dhmV24VTE5JBVS-16" value="yes" style="edgeStyle=orthogonalEdgeStyle;rounded=0;orthogonalLoop=1;jettySize=auto;html=1;" parent="1" source="jG9ba4dhmV24VTE5JBVS-10" target="jG9ba4dhmV24VTE5JBVS-4" edge="1">
          <mxGeometry relative="1" as="geometry" />
        </mxCell>
        <mxCell id="jG9ba4dhmV24VTE5JBVS-31" value="no" style="edgeStyle=orthogonalEdgeStyle;rounded=0;orthogonalLoop=1;jettySize=auto;html=1;entryX=0.5;entryY=0;entryDx=0;entryDy=0;" parent="1" source="jG9ba4dhmV24VTE5JBVS-10" target="jG9ba4dhmV24VTE5JBVS-30" edge="1">
          <mxGeometry relative="1" as="geometry" />
        </mxCell>
        <mxCell id="jG9ba4dhmV24VTE5JBVS-10" value="Kesempatan &amp;gt; 0" style="rhombus;whiteSpace=wrap;html=1;" parent="1" vertex="1">
          <mxGeometry x="370" y="570" width="100" height="80" as="geometry" />
        </mxCell>
        <mxCell id="jG9ba4dhmV24VTE5JBVS-18" value="" style="endArrow=classic;html=1;rounded=0;" parent="1" edge="1">
          <mxGeometry width="50" height="50" relative="1" as="geometry">
            <mxPoint x="550" y="580" as="sourcePoint" />
            <mxPoint x="630" y="580" as="targetPoint" />
          </mxGeometry>
        </mxCell>
        <mxCell id="jG9ba4dhmV24VTE5JBVS-19" value="" style="endArrow=classic;html=1;rounded=0;" parent="1" edge="1">
          <mxGeometry width="50" height="50" relative="1" as="geometry">
            <mxPoint x="540" y="720" as="sourcePoint" />
            <mxPoint x="620" y="720" as="targetPoint" />
          </mxGeometry>
        </mxCell>
        <mxCell id="jG9ba4dhmV24VTE5JBVS-23" value="" style="edgeStyle=orthogonalEdgeStyle;rounded=0;orthogonalLoop=1;jettySize=auto;html=1;" parent="1" source="jG9ba4dhmV24VTE5JBVS-20" target="jG9ba4dhmV24VTE5JBVS-22" edge="1">
          <mxGeometry relative="1" as="geometry" />
        </mxCell>
        <mxCell id="jG9ba4dhmV24VTE5JBVS-20" value="kesempatan -=1" style="whiteSpace=wrap;html=1;" parent="1" vertex="1">
          <mxGeometry x="570" y="1090" width="120" height="60" as="geometry" />
        </mxCell>
        <mxCell id="jG9ba4dhmV24VTE5JBVS-22" value="1" style="ellipse;whiteSpace=wrap;html=1;" parent="1" vertex="1">
          <mxGeometry x="590" y="1220" width="80" height="80" as="geometry" />
        </mxCell>
        <mxCell id="jG9ba4dhmV24VTE5JBVS-25" style="edgeStyle=orthogonalEdgeStyle;rounded=0;orthogonalLoop=1;jettySize=auto;html=1;entryX=0;entryY=0.5;entryDx=0;entryDy=0;" parent="1" source="jG9ba4dhmV24VTE5JBVS-24" target="jG9ba4dhmV24VTE5JBVS-10" edge="1">
          <mxGeometry relative="1" as="geometry" />
        </mxCell>
        <mxCell id="jG9ba4dhmV24VTE5JBVS-24" value="1" style="ellipse;whiteSpace=wrap;html=1;" parent="1" vertex="1">
          <mxGeometry x="210" y="570" width="80" height="80" as="geometry" />
        </mxCell>
        <mxCell id="jG9ba4dhmV24VTE5JBVS-30" value="End" style="ellipse;whiteSpace=wrap;html=1;" parent="1" vertex="1">
          <mxGeometry x="360" y="720" width="120" height="80" as="geometry" />
        </mxCell>
        <mxCell id="Oiies0Q6ovY3SSplrkyP-2" value="&lt;b&gt;B&lt;/b&gt;" style="shape=offPageConnector;whiteSpace=wrap;html=1;" parent="1" vertex="1">
          <mxGeometry x="820" y="890" width="80" height="80" as="geometry" />
        </mxCell>
        <mxCell id="qnP8-hVXdwPQhOOEU-Rb-2" value="" style="edgeStyle=orthogonalEdgeStyle;rounded=0;orthogonalLoop=1;jettySize=auto;html=1;" parent="1" source="qnP8-hVXdwPQhOOEU-Rb-1" target="jG9ba4dhmV24VTE5JBVS-30" edge="1">
          <mxGeometry relative="1" as="geometry" />
        </mxCell>
        <mxCell id="qnP8-hVXdwPQhOOEU-Rb-1" value="A" style="shape=offPageConnector;whiteSpace=wrap;html=1;" parent="1" vertex="1">
          <mxGeometry x="220" y="720" width="80" height="80" as="geometry" />
        </mxCell>
      </root>
    </mxGraphModel>
  </diagram>
  <diagram id="8-tOx4whjnMf5V2FZici" name="B">
    <mxGraphModel dx="2552" dy="2312" grid="1" gridSize="10" guides="1" tooltips="1" connect="1" arrows="1" fold="1" page="1" pageScale="1" pageWidth="850" pageHeight="1100" math="0" shadow="0">
      <root>
        <mxCell id="0" />
        <mxCell id="1" parent="0" />
        <mxCell id="or-O90fm8Cb-Drd4OZCP-9" style="edgeStyle=orthogonalEdgeStyle;rounded=0;orthogonalLoop=1;jettySize=auto;html=1;entryX=0.5;entryY=0;entryDx=0;entryDy=0;" parent="1" source="1RNMffRhFuhUuXHV5O-O-1" target="or-O90fm8Cb-Drd4OZCP-2" edge="1">
          <mxGeometry relative="1" as="geometry" />
        </mxCell>
        <mxCell id="1RNMffRhFuhUuXHV5O-O-1" value="B" style="shape=offPageConnector;whiteSpace=wrap;html=1;" parent="1" vertex="1">
          <mxGeometry x="380" y="-60" width="80" height="80" as="geometry" />
        </mxCell>
        <mxCell id="k772D9UPl_Cr1RTucT3d-2" value="yes" style="edgeStyle=orthogonalEdgeStyle;rounded=0;orthogonalLoop=1;jettySize=auto;html=1;" parent="1" source="1RNMffRhFuhUuXHV5O-O-2" target="k772D9UPl_Cr1RTucT3d-1" edge="1">
          <mxGeometry relative="1" as="geometry" />
        </mxCell>
        <mxCell id="wS-vSp85ui5F_FiLnX6T-2" value="no" style="edgeStyle=orthogonalEdgeStyle;rounded=0;orthogonalLoop=1;jettySize=auto;html=1;" parent="1" source="1RNMffRhFuhUuXHV5O-O-2" target="wS-vSp85ui5F_FiLnX6T-1" edge="1">
          <mxGeometry relative="1" as="geometry" />
        </mxCell>
        <mxCell id="1RNMffRhFuhUuXHV5O-O-2" value="Pilihan = 1" style="rhombus;whiteSpace=wrap;html=1;" parent="1" vertex="1">
          <mxGeometry x="380" y="430" width="80" height="80" as="geometry" />
        </mxCell>
        <mxCell id="Y1a-U4bAwjAOgYyfPE2R-54" style="edgeStyle=orthogonalEdgeStyle;rounded=0;orthogonalLoop=1;jettySize=auto;html=1;entryX=0;entryY=0.5;entryDx=0;entryDy=0;" parent="1" source="k772D9UPl_Cr1RTucT3d-1" target="Y1a-U4bAwjAOgYyfPE2R-53" edge="1">
          <mxGeometry relative="1" as="geometry" />
        </mxCell>
        <mxCell id="k772D9UPl_Cr1RTucT3d-1" value="Masukkan nama playlist" style="shape=parallelogram;perimeter=parallelogramPerimeter;whiteSpace=wrap;html=1;fixedSize=1;" parent="1" vertex="1">
          <mxGeometry x="520" y="440" width="120" height="60" as="geometry" />
        </mxCell>
        <mxCell id="k772D9UPl_Cr1RTucT3d-3" value="" style="endArrow=classic;html=1;rounded=0;" parent="1" edge="1">
          <mxGeometry width="50" height="50" relative="1" as="geometry">
            <mxPoint x="500" y="440" as="sourcePoint" />
            <mxPoint x="580" y="440" as="targetPoint" />
          </mxGeometry>
        </mxCell>
        <mxCell id="5FDWtyhQzUUkjb2osKsf-8" style="edgeStyle=orthogonalEdgeStyle;rounded=0;orthogonalLoop=1;jettySize=auto;html=1;entryX=0.5;entryY=0;entryDx=0;entryDy=0;" parent="1" source="k772D9UPl_Cr1RTucT3d-13" target="5FDWtyhQzUUkjb2osKsf-3" edge="1">
          <mxGeometry relative="1" as="geometry" />
        </mxCell>
        <mxCell id="k772D9UPl_Cr1RTucT3d-13" value="Buat playlist" style="whiteSpace=wrap;html=1;" parent="1" vertex="1">
          <mxGeometry x="930" y="440" width="120" height="60" as="geometry" />
        </mxCell>
        <mxCell id="wS-vSp85ui5F_FiLnX6T-4" value="yes" style="edgeStyle=orthogonalEdgeStyle;rounded=0;orthogonalLoop=1;jettySize=auto;html=1;" parent="1" source="wS-vSp85ui5F_FiLnX6T-1" target="wS-vSp85ui5F_FiLnX6T-3" edge="1">
          <mxGeometry relative="1" as="geometry" />
        </mxCell>
        <mxCell id="Y1a-U4bAwjAOgYyfPE2R-3" value="no" style="edgeStyle=orthogonalEdgeStyle;rounded=0;orthogonalLoop=1;jettySize=auto;html=1;" parent="1" source="wS-vSp85ui5F_FiLnX6T-1" target="Y1a-U4bAwjAOgYyfPE2R-2" edge="1">
          <mxGeometry relative="1" as="geometry" />
        </mxCell>
        <mxCell id="wS-vSp85ui5F_FiLnX6T-1" value="Pilihan = 2" style="rhombus;whiteSpace=wrap;html=1;" parent="1" vertex="1">
          <mxGeometry x="380" y="590" width="80" height="80" as="geometry" />
        </mxCell>
        <mxCell id="5FDWtyhQzUUkjb2osKsf-7" style="edgeStyle=orthogonalEdgeStyle;rounded=0;orthogonalLoop=1;jettySize=auto;html=1;entryX=0.5;entryY=0;entryDx=0;entryDy=0;" parent="1" source="wS-vSp85ui5F_FiLnX6T-3" target="5FDWtyhQzUUkjb2osKsf-3" edge="1">
          <mxGeometry relative="1" as="geometry" />
        </mxCell>
        <mxCell id="wS-vSp85ui5F_FiLnX6T-3" value="Tampilkan seluruh playlist" style="shape=parallelogram;perimeter=parallelogramPerimeter;whiteSpace=wrap;html=1;fixedSize=1;" parent="1" vertex="1">
          <mxGeometry x="520" y="600" width="120" height="60" as="geometry" />
        </mxCell>
        <mxCell id="Y1a-U4bAwjAOgYyfPE2R-1" value="" style="endArrow=classic;html=1;rounded=0;" parent="1" edge="1">
          <mxGeometry width="50" height="50" relative="1" as="geometry">
            <mxPoint x="580" y="660" as="sourcePoint" />
            <mxPoint x="660" y="660" as="targetPoint" />
          </mxGeometry>
        </mxCell>
        <mxCell id="Y1a-U4bAwjAOgYyfPE2R-5" value="yes" style="edgeStyle=orthogonalEdgeStyle;rounded=0;orthogonalLoop=1;jettySize=auto;html=1;" parent="1" source="Y1a-U4bAwjAOgYyfPE2R-2" target="Y1a-U4bAwjAOgYyfPE2R-4" edge="1">
          <mxGeometry relative="1" as="geometry" />
        </mxCell>
        <mxCell id="O7a1UTw39w7kDlPh4DLp-2" value="no" style="edgeStyle=orthogonalEdgeStyle;rounded=0;orthogonalLoop=1;jettySize=auto;html=1;exitX=0.5;exitY=1;exitDx=0;exitDy=0;" edge="1" parent="1" source="Y1a-U4bAwjAOgYyfPE2R-2" target="O7a1UTw39w7kDlPh4DLp-1">
          <mxGeometry relative="1" as="geometry" />
        </mxCell>
        <mxCell id="Y1a-U4bAwjAOgYyfPE2R-2" value="Pilihan = 3" style="rhombus;whiteSpace=wrap;html=1;" parent="1" vertex="1">
          <mxGeometry x="380" y="750" width="80" height="80" as="geometry" />
        </mxCell>
        <mxCell id="Y1a-U4bAwjAOgYyfPE2R-8" value="" style="edgeStyle=orthogonalEdgeStyle;rounded=0;orthogonalLoop=1;jettySize=auto;html=1;" parent="1" source="Y1a-U4bAwjAOgYyfPE2R-4" target="Y1a-U4bAwjAOgYyfPE2R-7" edge="1">
          <mxGeometry relative="1" as="geometry" />
        </mxCell>
        <mxCell id="Y1a-U4bAwjAOgYyfPE2R-4" value="Tampilkan seluruh playlist" style="shape=parallelogram;perimeter=parallelogramPerimeter;whiteSpace=wrap;html=1;fixedSize=1;" parent="1" vertex="1">
          <mxGeometry x="510" y="760" width="120" height="60" as="geometry" />
        </mxCell>
        <mxCell id="Y1a-U4bAwjAOgYyfPE2R-6" value="" style="endArrow=classic;html=1;rounded=0;" parent="1" edge="1">
          <mxGeometry width="50" height="50" relative="1" as="geometry">
            <mxPoint x="570" y="820" as="sourcePoint" />
            <mxPoint x="650" y="820" as="targetPoint" />
          </mxGeometry>
        </mxCell>
        <mxCell id="Y1a-U4bAwjAOgYyfPE2R-11" value="" style="edgeStyle=orthogonalEdgeStyle;rounded=0;orthogonalLoop=1;jettySize=auto;html=1;" parent="1" source="Y1a-U4bAwjAOgYyfPE2R-7" target="Y1a-U4bAwjAOgYyfPE2R-10" edge="1">
          <mxGeometry relative="1" as="geometry" />
        </mxCell>
        <mxCell id="Y1a-U4bAwjAOgYyfPE2R-7" value="Pilih playlist yang ingin diupdate" style="shape=parallelogram;perimeter=parallelogramPerimeter;whiteSpace=wrap;html=1;fixedSize=1;" parent="1" vertex="1">
          <mxGeometry x="710" y="760" width="120" height="60" as="geometry" />
        </mxCell>
        <mxCell id="Y1a-U4bAwjAOgYyfPE2R-9" value="" style="endArrow=classic;html=1;rounded=0;" parent="1" edge="1">
          <mxGeometry width="50" height="50" relative="1" as="geometry">
            <mxPoint x="680" y="758.67" as="sourcePoint" />
            <mxPoint x="760" y="758.67" as="targetPoint" />
          </mxGeometry>
        </mxCell>
        <mxCell id="Y1a-U4bAwjAOgYyfPE2R-16" value="" style="edgeStyle=orthogonalEdgeStyle;rounded=0;orthogonalLoop=1;jettySize=auto;html=1;" parent="1" source="Y1a-U4bAwjAOgYyfPE2R-10" target="Y1a-U4bAwjAOgYyfPE2R-15" edge="1">
          <mxGeometry relative="1" as="geometry" />
        </mxCell>
        <mxCell id="Y1a-U4bAwjAOgYyfPE2R-10" value="1.Tambah musik&lt;br&gt;2.Ubah playlist" style="shape=parallelogram;perimeter=parallelogramPerimeter;whiteSpace=wrap;html=1;fixedSize=1;" parent="1" vertex="1">
          <mxGeometry x="910" y="760" width="120" height="60" as="geometry" />
        </mxCell>
        <mxCell id="Y1a-U4bAwjAOgYyfPE2R-12" value="" style="endArrow=classic;html=1;rounded=0;" parent="1" edge="1">
          <mxGeometry width="50" height="50" relative="1" as="geometry">
            <mxPoint x="970" y="820" as="sourcePoint" />
            <mxPoint x="1050" y="820" as="targetPoint" />
          </mxGeometry>
        </mxCell>
        <mxCell id="Y1a-U4bAwjAOgYyfPE2R-18" value="" style="edgeStyle=orthogonalEdgeStyle;rounded=0;orthogonalLoop=1;jettySize=auto;html=1;" parent="1" source="Y1a-U4bAwjAOgYyfPE2R-15" target="Y1a-U4bAwjAOgYyfPE2R-17" edge="1">
          <mxGeometry relative="1" as="geometry" />
        </mxCell>
        <mxCell id="Y1a-U4bAwjAOgYyfPE2R-15" value="Masukkan pilih" style="shape=parallelogram;perimeter=parallelogramPerimeter;whiteSpace=wrap;html=1;fixedSize=1;" parent="1" vertex="1">
          <mxGeometry x="1110" y="760" width="120" height="60" as="geometry" />
        </mxCell>
        <mxCell id="Y1a-U4bAwjAOgYyfPE2R-26" value="yes" style="edgeStyle=orthogonalEdgeStyle;rounded=0;orthogonalLoop=1;jettySize=auto;html=1;" parent="1" source="Y1a-U4bAwjAOgYyfPE2R-17" target="Y1a-U4bAwjAOgYyfPE2R-20" edge="1">
          <mxGeometry relative="1" as="geometry" />
        </mxCell>
        <mxCell id="Y1a-U4bAwjAOgYyfPE2R-31" value="no" style="edgeStyle=orthogonalEdgeStyle;rounded=0;orthogonalLoop=1;jettySize=auto;html=1;" parent="1" source="Y1a-U4bAwjAOgYyfPE2R-17" target="Y1a-U4bAwjAOgYyfPE2R-30" edge="1">
          <mxGeometry relative="1" as="geometry" />
        </mxCell>
        <mxCell id="Y1a-U4bAwjAOgYyfPE2R-17" value="pilih = 1" style="rhombus;whiteSpace=wrap;html=1;" parent="1" vertex="1">
          <mxGeometry x="1130" y="890" width="80" height="80" as="geometry" />
        </mxCell>
        <mxCell id="Y1a-U4bAwjAOgYyfPE2R-52" style="edgeStyle=orthogonalEdgeStyle;rounded=0;orthogonalLoop=1;jettySize=auto;html=1;entryX=0;entryY=0.5;entryDx=0;entryDy=0;" parent="1" source="Y1a-U4bAwjAOgYyfPE2R-20" target="Y1a-U4bAwjAOgYyfPE2R-28" edge="1">
          <mxGeometry relative="1" as="geometry" />
        </mxCell>
        <mxCell id="Y1a-U4bAwjAOgYyfPE2R-20" value="Masukkan nama, genre, dan artis musik" style="shape=parallelogram;perimeter=parallelogramPerimeter;whiteSpace=wrap;html=1;fixedSize=1;" parent="1" vertex="1">
          <mxGeometry x="1310" y="901" width="120" height="60" as="geometry" />
        </mxCell>
        <mxCell id="Y1a-U4bAwjAOgYyfPE2R-27" value="" style="endArrow=classic;html=1;rounded=0;" parent="1" edge="1">
          <mxGeometry width="50" height="50" relative="1" as="geometry">
            <mxPoint x="1290" y="901" as="sourcePoint" />
            <mxPoint x="1370" y="901" as="targetPoint" />
          </mxGeometry>
        </mxCell>
        <mxCell id="5FDWtyhQzUUkjb2osKsf-6" style="edgeStyle=orthogonalEdgeStyle;rounded=0;orthogonalLoop=1;jettySize=auto;html=1;entryX=0.5;entryY=0;entryDx=0;entryDy=0;" parent="1" source="Y1a-U4bAwjAOgYyfPE2R-28" target="5FDWtyhQzUUkjb2osKsf-3" edge="1">
          <mxGeometry relative="1" as="geometry" />
        </mxCell>
        <mxCell id="Y1a-U4bAwjAOgYyfPE2R-28" value="Tambahkan musik ke playlist" style="whiteSpace=wrap;html=1;" parent="1" vertex="1">
          <mxGeometry x="1560" y="900" width="120" height="60" as="geometry" />
        </mxCell>
        <mxCell id="Y1a-U4bAwjAOgYyfPE2R-33" value="yes" style="edgeStyle=orthogonalEdgeStyle;rounded=0;orthogonalLoop=1;jettySize=auto;html=1;" parent="1" source="Y1a-U4bAwjAOgYyfPE2R-30" target="Y1a-U4bAwjAOgYyfPE2R-32" edge="1">
          <mxGeometry relative="1" as="geometry" />
        </mxCell>
        <mxCell id="5J8frb9KmRw0UBVzs86_-4" value="no" style="edgeStyle=orthogonalEdgeStyle;rounded=0;orthogonalLoop=1;jettySize=auto;html=1;" parent="1" source="Y1a-U4bAwjAOgYyfPE2R-30" target="5J8frb9KmRw0UBVzs86_-3" edge="1">
          <mxGeometry relative="1" as="geometry" />
        </mxCell>
        <mxCell id="Y1a-U4bAwjAOgYyfPE2R-30" value="pilih = 2" style="rhombus;whiteSpace=wrap;html=1;" parent="1" vertex="1">
          <mxGeometry x="1130" y="1050" width="80" height="80" as="geometry" />
        </mxCell>
        <mxCell id="Y1a-U4bAwjAOgYyfPE2R-36" value="" style="edgeStyle=orthogonalEdgeStyle;rounded=0;orthogonalLoop=1;jettySize=auto;html=1;" parent="1" source="Y1a-U4bAwjAOgYyfPE2R-32" target="Y1a-U4bAwjAOgYyfPE2R-35" edge="1">
          <mxGeometry relative="1" as="geometry" />
        </mxCell>
        <mxCell id="Y1a-U4bAwjAOgYyfPE2R-32" value="1.ganti nama playlist&lt;br&gt;2.ganti musik" style="shape=parallelogram;perimeter=parallelogramPerimeter;whiteSpace=wrap;html=1;fixedSize=1;" parent="1" vertex="1">
          <mxGeometry x="1250" y="1060" width="140" height="60" as="geometry" />
        </mxCell>
        <mxCell id="Y1a-U4bAwjAOgYyfPE2R-34" value="" style="endArrow=classic;html=1;rounded=0;" parent="1" edge="1">
          <mxGeometry width="50" height="50" relative="1" as="geometry">
            <mxPoint x="1330" y="1120" as="sourcePoint" />
            <mxPoint x="1410" y="1120" as="targetPoint" />
          </mxGeometry>
        </mxCell>
        <mxCell id="Y1a-U4bAwjAOgYyfPE2R-39" value="" style="edgeStyle=orthogonalEdgeStyle;rounded=0;orthogonalLoop=1;jettySize=auto;html=1;" parent="1" source="Y1a-U4bAwjAOgYyfPE2R-35" target="Y1a-U4bAwjAOgYyfPE2R-38" edge="1">
          <mxGeometry relative="1" as="geometry" />
        </mxCell>
        <mxCell id="Y1a-U4bAwjAOgYyfPE2R-35" value="Masukkan opsi" style="shape=parallelogram;perimeter=parallelogramPerimeter;whiteSpace=wrap;html=1;fixedSize=1;" parent="1" vertex="1">
          <mxGeometry x="1470" y="1060" width="120" height="60" as="geometry" />
        </mxCell>
        <mxCell id="Y1a-U4bAwjAOgYyfPE2R-37" value="" style="endArrow=classic;html=1;rounded=0;" parent="1" edge="1">
          <mxGeometry width="50" height="50" relative="1" as="geometry">
            <mxPoint x="1460" y="1058.5700000000002" as="sourcePoint" />
            <mxPoint x="1540" y="1058.5700000000002" as="targetPoint" />
          </mxGeometry>
        </mxCell>
        <mxCell id="Y1a-U4bAwjAOgYyfPE2R-41" value="yes" style="edgeStyle=orthogonalEdgeStyle;rounded=0;orthogonalLoop=1;jettySize=auto;html=1;" parent="1" source="Y1a-U4bAwjAOgYyfPE2R-38" target="Y1a-U4bAwjAOgYyfPE2R-40" edge="1">
          <mxGeometry relative="1" as="geometry" />
        </mxCell>
        <mxCell id="Y1a-U4bAwjAOgYyfPE2R-46" value="no" style="edgeStyle=orthogonalEdgeStyle;rounded=0;orthogonalLoop=1;jettySize=auto;html=1;" parent="1" source="Y1a-U4bAwjAOgYyfPE2R-38" target="Y1a-U4bAwjAOgYyfPE2R-45" edge="1">
          <mxGeometry relative="1" as="geometry" />
        </mxCell>
        <mxCell id="Y1a-U4bAwjAOgYyfPE2R-38" value="opsi = 1" style="rhombus;whiteSpace=wrap;html=1;" parent="1" vertex="1">
          <mxGeometry x="1690" y="1050" width="80" height="80" as="geometry" />
        </mxCell>
        <mxCell id="Y1a-U4bAwjAOgYyfPE2R-44" value="" style="edgeStyle=orthogonalEdgeStyle;rounded=0;orthogonalLoop=1;jettySize=auto;html=1;" parent="1" source="Y1a-U4bAwjAOgYyfPE2R-40" target="Y1a-U4bAwjAOgYyfPE2R-43" edge="1">
          <mxGeometry relative="1" as="geometry" />
        </mxCell>
        <mxCell id="Y1a-U4bAwjAOgYyfPE2R-40" value="masukkan nama playlist baru" style="shape=parallelogram;perimeter=parallelogramPerimeter;whiteSpace=wrap;html=1;fixedSize=1;" parent="1" vertex="1">
          <mxGeometry x="1830" y="1060" width="120" height="60" as="geometry" />
        </mxCell>
        <mxCell id="Y1a-U4bAwjAOgYyfPE2R-42" value="" style="endArrow=classic;html=1;rounded=0;" parent="1" edge="1">
          <mxGeometry width="50" height="50" relative="1" as="geometry">
            <mxPoint x="1810" y="1060" as="sourcePoint" />
            <mxPoint x="1890" y="1060" as="targetPoint" />
          </mxGeometry>
        </mxCell>
        <mxCell id="5FDWtyhQzUUkjb2osKsf-5" style="edgeStyle=orthogonalEdgeStyle;rounded=0;orthogonalLoop=1;jettySize=auto;html=1;" parent="1" source="Y1a-U4bAwjAOgYyfPE2R-43" target="5FDWtyhQzUUkjb2osKsf-3" edge="1">
          <mxGeometry relative="1" as="geometry" />
        </mxCell>
        <mxCell id="Y1a-U4bAwjAOgYyfPE2R-43" value="ganti nama playlist" style="whiteSpace=wrap;html=1;" parent="1" vertex="1">
          <mxGeometry x="2030" y="1060" width="120" height="60" as="geometry" />
        </mxCell>
        <mxCell id="Y1a-U4bAwjAOgYyfPE2R-48" value="yes" style="edgeStyle=orthogonalEdgeStyle;rounded=0;orthogonalLoop=1;jettySize=auto;html=1;" parent="1" source="Y1a-U4bAwjAOgYyfPE2R-45" target="Y1a-U4bAwjAOgYyfPE2R-47" edge="1">
          <mxGeometry relative="1" as="geometry" />
        </mxCell>
        <mxCell id="Y1a-U4bAwjAOgYyfPE2R-63" value="no" style="edgeStyle=orthogonalEdgeStyle;rounded=0;orthogonalLoop=1;jettySize=auto;html=1;" parent="1" source="Y1a-U4bAwjAOgYyfPE2R-45" target="Y1a-U4bAwjAOgYyfPE2R-62" edge="1">
          <mxGeometry relative="1" as="geometry" />
        </mxCell>
        <mxCell id="Y1a-U4bAwjAOgYyfPE2R-45" value="opsi = 2" style="rhombus;whiteSpace=wrap;html=1;" parent="1" vertex="1">
          <mxGeometry x="1690" y="1210" width="80" height="80" as="geometry" />
        </mxCell>
        <mxCell id="Y1a-U4bAwjAOgYyfPE2R-58" style="edgeStyle=orthogonalEdgeStyle;rounded=0;orthogonalLoop=1;jettySize=auto;html=1;entryX=0;entryY=0.5;entryDx=0;entryDy=0;" parent="1" source="Y1a-U4bAwjAOgYyfPE2R-47" target="Y1a-U4bAwjAOgYyfPE2R-57" edge="1">
          <mxGeometry relative="1" as="geometry" />
        </mxCell>
        <mxCell id="Y1a-U4bAwjAOgYyfPE2R-47" value="pilih musik" style="shape=parallelogram;perimeter=parallelogramPerimeter;whiteSpace=wrap;html=1;fixedSize=1;" parent="1" vertex="1">
          <mxGeometry x="1830" y="1220" width="120" height="60" as="geometry" />
        </mxCell>
        <mxCell id="Y1a-U4bAwjAOgYyfPE2R-49" value="" style="endArrow=classic;html=1;rounded=0;" parent="1" edge="1">
          <mxGeometry width="50" height="50" relative="1" as="geometry">
            <mxPoint x="1810" y="1220" as="sourcePoint" />
            <mxPoint x="1890" y="1220" as="targetPoint" />
          </mxGeometry>
        </mxCell>
        <mxCell id="Y1a-U4bAwjAOgYyfPE2R-55" style="edgeStyle=orthogonalEdgeStyle;rounded=0;orthogonalLoop=1;jettySize=auto;html=1;entryX=0;entryY=0.5;entryDx=0;entryDy=0;" parent="1" source="Y1a-U4bAwjAOgYyfPE2R-53" target="k772D9UPl_Cr1RTucT3d-13" edge="1">
          <mxGeometry relative="1" as="geometry" />
        </mxCell>
        <mxCell id="Y1a-U4bAwjAOgYyfPE2R-53" value="Masukkan nama, genre, dan artis musik" style="shape=parallelogram;perimeter=parallelogramPerimeter;whiteSpace=wrap;html=1;fixedSize=1;" parent="1" vertex="1">
          <mxGeometry x="720" y="440" width="120" height="60" as="geometry" />
        </mxCell>
        <mxCell id="Y1a-U4bAwjAOgYyfPE2R-56" value="" style="endArrow=classic;html=1;rounded=0;" parent="1" edge="1">
          <mxGeometry width="50" height="50" relative="1" as="geometry">
            <mxPoint x="700" y="438.67" as="sourcePoint" />
            <mxPoint x="780" y="438.67" as="targetPoint" />
          </mxGeometry>
        </mxCell>
        <mxCell id="Y1a-U4bAwjAOgYyfPE2R-61" value="" style="edgeStyle=orthogonalEdgeStyle;rounded=0;orthogonalLoop=1;jettySize=auto;html=1;" parent="1" source="Y1a-U4bAwjAOgYyfPE2R-57" target="Y1a-U4bAwjAOgYyfPE2R-60" edge="1">
          <mxGeometry relative="1" as="geometry" />
        </mxCell>
        <mxCell id="Y1a-U4bAwjAOgYyfPE2R-57" value="Masukkan nama, genre, dan artis musik baru" style="shape=parallelogram;perimeter=parallelogramPerimeter;whiteSpace=wrap;html=1;fixedSize=1;" parent="1" vertex="1">
          <mxGeometry x="2000" y="1220" width="120" height="60" as="geometry" />
        </mxCell>
        <mxCell id="Y1a-U4bAwjAOgYyfPE2R-59" value="" style="endArrow=classic;html=1;rounded=0;" parent="1" edge="1">
          <mxGeometry width="50" height="50" relative="1" as="geometry">
            <mxPoint x="1990" y="1220" as="sourcePoint" />
            <mxPoint x="2070" y="1220" as="targetPoint" />
          </mxGeometry>
        </mxCell>
        <mxCell id="5FDWtyhQzUUkjb2osKsf-4" value="" style="edgeStyle=orthogonalEdgeStyle;rounded=0;orthogonalLoop=1;jettySize=auto;html=1;" parent="1" source="Y1a-U4bAwjAOgYyfPE2R-60" target="5FDWtyhQzUUkjb2osKsf-3" edge="1">
          <mxGeometry relative="1" as="geometry" />
        </mxCell>
        <mxCell id="Y1a-U4bAwjAOgYyfPE2R-60" value="ganti nama, genre, dan artis musik" style="whiteSpace=wrap;html=1;" parent="1" vertex="1">
          <mxGeometry x="2200" y="1220" width="120" height="60" as="geometry" />
        </mxCell>
        <mxCell id="5FDWtyhQzUUkjb2osKsf-26" value="" style="edgeStyle=orthogonalEdgeStyle;rounded=0;orthogonalLoop=1;jettySize=auto;html=1;" parent="1" source="Y1a-U4bAwjAOgYyfPE2R-62" target="5FDWtyhQzUUkjb2osKsf-25" edge="1">
          <mxGeometry relative="1" as="geometry" />
        </mxCell>
        <mxCell id="Y1a-U4bAwjAOgYyfPE2R-62" value="Opsi tidak valid" style="shape=parallelogram;perimeter=parallelogramPerimeter;whiteSpace=wrap;html=1;fixedSize=1;" parent="1" vertex="1">
          <mxGeometry x="1670" y="1380" width="120" height="60" as="geometry" />
        </mxCell>
        <mxCell id="Y1a-U4bAwjAOgYyfPE2R-64" value="" style="endArrow=classic;html=1;rounded=0;" parent="1" edge="1">
          <mxGeometry width="50" height="50" relative="1" as="geometry">
            <mxPoint x="1720" y="1440" as="sourcePoint" />
            <mxPoint x="1800" y="1440" as="targetPoint" />
          </mxGeometry>
        </mxCell>
        <mxCell id="5FDWtyhQzUUkjb2osKsf-22" value="" style="edgeStyle=orthogonalEdgeStyle;rounded=0;orthogonalLoop=1;jettySize=auto;html=1;" parent="1" source="5J8frb9KmRw0UBVzs86_-3" target="5FDWtyhQzUUkjb2osKsf-21" edge="1">
          <mxGeometry relative="1" as="geometry" />
        </mxCell>
        <mxCell id="5J8frb9KmRw0UBVzs86_-3" value="pilih tidak valid" style="shape=parallelogram;perimeter=parallelogramPerimeter;whiteSpace=wrap;html=1;fixedSize=1;" parent="1" vertex="1">
          <mxGeometry x="1110" y="1180" width="120" height="60" as="geometry" />
        </mxCell>
        <mxCell id="5J8frb9KmRw0UBVzs86_-5" value="" style="endArrow=classic;html=1;rounded=0;" parent="1" edge="1">
          <mxGeometry width="50" height="50" relative="1" as="geometry">
            <mxPoint x="1180" y="1240" as="sourcePoint" />
            <mxPoint x="1260" y="1240" as="targetPoint" />
          </mxGeometry>
        </mxCell>
        <mxCell id="or-O90fm8Cb-Drd4OZCP-1" value="" style="edgeStyle=orthogonalEdgeStyle;rounded=0;orthogonalLoop=1;jettySize=auto;html=1;" parent="1" source="or-O90fm8Cb-Drd4OZCP-2" target="or-O90fm8Cb-Drd4OZCP-6" edge="1">
          <mxGeometry relative="1" as="geometry" />
        </mxCell>
        <mxCell id="or-O90fm8Cb-Drd4OZCP-2" value="Menu:&lt;br&gt;1.Buat playlist&lt;br&gt;2.Lihat playlist&lt;br&gt;3.Update playlist&lt;div&gt;4.Hapus playlist&lt;/div&gt;&lt;div&gt;0.Keluar&lt;/div&gt;" style="shape=parallelogram;perimeter=parallelogramPerimeter;whiteSpace=wrap;html=1;fixedSize=1;" parent="1" vertex="1">
          <mxGeometry x="345" y="110" width="150" height="90" as="geometry" />
        </mxCell>
        <mxCell id="or-O90fm8Cb-Drd4OZCP-3" value="" style="endArrow=classic;html=1;rounded=0;" parent="1" edge="1">
          <mxGeometry width="50" height="50" relative="1" as="geometry">
            <mxPoint x="445" y="200" as="sourcePoint" />
            <mxPoint x="525" y="200" as="targetPoint" />
          </mxGeometry>
        </mxCell>
        <mxCell id="or-O90fm8Cb-Drd4OZCP-10" style="edgeStyle=orthogonalEdgeStyle;rounded=0;orthogonalLoop=1;jettySize=auto;html=1;entryX=0.5;entryY=0;entryDx=0;entryDy=0;" parent="1" source="or-O90fm8Cb-Drd4OZCP-6" target="1RNMffRhFuhUuXHV5O-O-2" edge="1">
          <mxGeometry relative="1" as="geometry" />
        </mxCell>
        <mxCell id="or-O90fm8Cb-Drd4OZCP-6" value="Masukkan pilihan" style="shape=parallelogram;perimeter=parallelogramPerimeter;whiteSpace=wrap;html=1;fixedSize=1;" parent="1" vertex="1">
          <mxGeometry x="360" y="295" width="120" height="60" as="geometry" />
        </mxCell>
        <mxCell id="or-O90fm8Cb-Drd4OZCP-7" value="" style="endArrow=classic;html=1;rounded=0;" parent="1" edge="1">
          <mxGeometry width="50" height="50" relative="1" as="geometry">
            <mxPoint x="325" y="295" as="sourcePoint" />
            <mxPoint x="405" y="295" as="targetPoint" />
          </mxGeometry>
        </mxCell>
        <mxCell id="5FDWtyhQzUUkjb2osKsf-2" style="edgeStyle=orthogonalEdgeStyle;rounded=0;orthogonalLoop=1;jettySize=auto;html=1;entryX=1;entryY=0.5;entryDx=0;entryDy=0;" parent="1" source="5FDWtyhQzUUkjb2osKsf-1" target="or-O90fm8Cb-Drd4OZCP-2" edge="1">
          <mxGeometry relative="1" as="geometry" />
        </mxCell>
        <mxCell id="5FDWtyhQzUUkjb2osKsf-1" value="2" style="ellipse;whiteSpace=wrap;html=1;aspect=fixed;" parent="1" vertex="1">
          <mxGeometry x="610" y="115" width="80" height="80" as="geometry" />
        </mxCell>
        <mxCell id="5FDWtyhQzUUkjb2osKsf-3" value="2" style="ellipse;whiteSpace=wrap;html=1;" parent="1" vertex="1">
          <mxGeometry x="2220" y="950" width="80" height="80" as="geometry" />
        </mxCell>
        <mxCell id="5FDWtyhQzUUkjb2osKsf-21" value="3" style="ellipse;whiteSpace=wrap;html=1;" parent="1" vertex="1">
          <mxGeometry x="1130" y="1290" width="80" height="80" as="geometry" />
        </mxCell>
        <mxCell id="5FDWtyhQzUUkjb2osKsf-24" style="edgeStyle=orthogonalEdgeStyle;rounded=0;orthogonalLoop=1;jettySize=auto;html=1;" parent="1" source="5FDWtyhQzUUkjb2osKsf-23" target="Y1a-U4bAwjAOgYyfPE2R-10" edge="1">
          <mxGeometry relative="1" as="geometry" />
        </mxCell>
        <mxCell id="5FDWtyhQzUUkjb2osKsf-23" value="3" style="ellipse;whiteSpace=wrap;html=1;" parent="1" vertex="1">
          <mxGeometry x="930" y="650" width="80" height="80" as="geometry" />
        </mxCell>
        <mxCell id="5FDWtyhQzUUkjb2osKsf-25" value="4" style="ellipse;whiteSpace=wrap;html=1;" parent="1" vertex="1">
          <mxGeometry x="1890" y="1370" width="80" height="80" as="geometry" />
        </mxCell>
        <mxCell id="5FDWtyhQzUUkjb2osKsf-28" style="edgeStyle=orthogonalEdgeStyle;rounded=0;orthogonalLoop=1;jettySize=auto;html=1;entryX=0.5;entryY=1;entryDx=0;entryDy=0;" parent="1" source="5FDWtyhQzUUkjb2osKsf-27" target="Y1a-U4bAwjAOgYyfPE2R-32" edge="1">
          <mxGeometry relative="1" as="geometry" />
        </mxCell>
        <mxCell id="5FDWtyhQzUUkjb2osKsf-27" value="4" style="ellipse;whiteSpace=wrap;html=1;" parent="1" vertex="1">
          <mxGeometry x="1280" y="1200" width="80" height="80" as="geometry" />
        </mxCell>
        <mxCell id="O7a1UTw39w7kDlPh4DLp-1" value="C" style="shape=offPageConnector;whiteSpace=wrap;html=1;" vertex="1" parent="1">
          <mxGeometry x="380" y="930" width="80" height="80" as="geometry" />
        </mxCell>
        <mxCell id="14v70f6HtvXJzGTvn2kH-2" style="edgeStyle=orthogonalEdgeStyle;rounded=0;orthogonalLoop=1;jettySize=auto;html=1;entryX=1;entryY=0.5;entryDx=0;entryDy=0;" edge="1" parent="1" source="14v70f6HtvXJzGTvn2kH-1" target="5FDWtyhQzUUkjb2osKsf-1">
          <mxGeometry relative="1" as="geometry" />
        </mxCell>
        <mxCell id="14v70f6HtvXJzGTvn2kH-1" value="B" style="shape=offPageConnector;whiteSpace=wrap;html=1;" vertex="1" parent="1">
          <mxGeometry x="860" y="115" width="80" height="80" as="geometry" />
        </mxCell>
      </root>
    </mxGraphModel>
  </diagram>
  <diagram id="4CbcWKEter_S9Be530cB" name="C">
    <mxGraphModel dx="2127" dy="1010" grid="1" gridSize="10" guides="1" tooltips="1" connect="1" arrows="1" fold="1" page="1" pageScale="1" pageWidth="850" pageHeight="1100" math="0" shadow="0">
      <root>
        <mxCell id="0" />
        <mxCell id="1" parent="0" />
        <mxCell id="WvZFkTVGj3BUT5jhODCM-1" value="yes" style="edgeStyle=orthogonalEdgeStyle;rounded=0;orthogonalLoop=1;jettySize=auto;html=1;" edge="1" parent="1" source="WvZFkTVGj3BUT5jhODCM-3" target="WvZFkTVGj3BUT5jhODCM-5">
          <mxGeometry relative="1" as="geometry" />
        </mxCell>
        <mxCell id="WvZFkTVGj3BUT5jhODCM-2" value="no" style="edgeStyle=orthogonalEdgeStyle;rounded=0;orthogonalLoop=1;jettySize=auto;html=1;" edge="1" parent="1" source="WvZFkTVGj3BUT5jhODCM-3" target="WvZFkTVGj3BUT5jhODCM-23">
          <mxGeometry relative="1" as="geometry" />
        </mxCell>
        <mxCell id="WvZFkTVGj3BUT5jhODCM-3" value="Pilihan = 4" style="rhombus;whiteSpace=wrap;html=1;" vertex="1" parent="1">
          <mxGeometry x="60" y="300" width="80" height="80" as="geometry" />
        </mxCell>
        <mxCell id="WvZFkTVGj3BUT5jhODCM-4" value="" style="edgeStyle=orthogonalEdgeStyle;rounded=0;orthogonalLoop=1;jettySize=auto;html=1;" edge="1" parent="1" source="WvZFkTVGj3BUT5jhODCM-5" target="WvZFkTVGj3BUT5jhODCM-7">
          <mxGeometry relative="1" as="geometry" />
        </mxCell>
        <mxCell id="WvZFkTVGj3BUT5jhODCM-5" value="Tampilkan seluruh playlist" style="shape=parallelogram;perimeter=parallelogramPerimeter;whiteSpace=wrap;html=1;fixedSize=1;" vertex="1" parent="1">
          <mxGeometry x="190" y="310" width="120" height="60" as="geometry" />
        </mxCell>
        <mxCell id="WvZFkTVGj3BUT5jhODCM-6" value="" style="edgeStyle=orthogonalEdgeStyle;rounded=0;orthogonalLoop=1;jettySize=auto;html=1;" edge="1" parent="1" source="WvZFkTVGj3BUT5jhODCM-7" target="WvZFkTVGj3BUT5jhODCM-9">
          <mxGeometry relative="1" as="geometry" />
        </mxCell>
        <mxCell id="WvZFkTVGj3BUT5jhODCM-7" value="Pilih playlist" style="shape=parallelogram;perimeter=parallelogramPerimeter;whiteSpace=wrap;html=1;fixedSize=1;" vertex="1" parent="1">
          <mxGeometry x="390" y="310" width="120" height="60" as="geometry" />
        </mxCell>
        <mxCell id="WvZFkTVGj3BUT5jhODCM-8" value="" style="edgeStyle=orthogonalEdgeStyle;rounded=0;orthogonalLoop=1;jettySize=auto;html=1;" edge="1" parent="1" source="WvZFkTVGj3BUT5jhODCM-9" target="WvZFkTVGj3BUT5jhODCM-11">
          <mxGeometry relative="1" as="geometry" />
        </mxCell>
        <mxCell id="WvZFkTVGj3BUT5jhODCM-9" value="1.Hapus playlist&lt;br&gt;2.Hapus musik dalam playlist" style="shape=parallelogram;perimeter=parallelogramPerimeter;whiteSpace=wrap;html=1;fixedSize=1;" vertex="1" parent="1">
          <mxGeometry x="595" y="305" width="150" height="70" as="geometry" />
        </mxCell>
        <mxCell id="WvZFkTVGj3BUT5jhODCM-10" value="no" style="edgeStyle=orthogonalEdgeStyle;rounded=0;orthogonalLoop=1;jettySize=auto;html=1;" edge="1" parent="1" source="WvZFkTVGj3BUT5jhODCM-11" target="WvZFkTVGj3BUT5jhODCM-14">
          <mxGeometry relative="1" as="geometry" />
        </mxCell>
        <mxCell id="WvZFkTVGj3BUT5jhODCM-11" value="masukkan opsi" style="shape=parallelogram;perimeter=parallelogramPerimeter;whiteSpace=wrap;html=1;fixedSize=1;" vertex="1" parent="1">
          <mxGeometry x="610" y="460" width="120" height="60" as="geometry" />
        </mxCell>
        <mxCell id="WvZFkTVGj3BUT5jhODCM-12" value="yes" style="edgeStyle=orthogonalEdgeStyle;rounded=0;orthogonalLoop=1;jettySize=auto;html=1;" edge="1" parent="1" source="WvZFkTVGj3BUT5jhODCM-14" target="WvZFkTVGj3BUT5jhODCM-15">
          <mxGeometry relative="1" as="geometry" />
        </mxCell>
        <mxCell id="WvZFkTVGj3BUT5jhODCM-13" value="no" style="edgeStyle=orthogonalEdgeStyle;rounded=0;orthogonalLoop=1;jettySize=auto;html=1;" edge="1" parent="1" source="WvZFkTVGj3BUT5jhODCM-14" target="WvZFkTVGj3BUT5jhODCM-18">
          <mxGeometry relative="1" as="geometry" />
        </mxCell>
        <mxCell id="WvZFkTVGj3BUT5jhODCM-14" value="opsi = 1" style="rhombus;whiteSpace=wrap;html=1;" vertex="1" parent="1">
          <mxGeometry x="630" y="590" width="80" height="80" as="geometry" />
        </mxCell>
        <mxCell id="4s9rJYS3UdIpYFSd3ybi-4" style="edgeStyle=orthogonalEdgeStyle;rounded=0;orthogonalLoop=1;jettySize=auto;html=1;" edge="1" parent="1" source="WvZFkTVGj3BUT5jhODCM-15">
          <mxGeometry relative="1" as="geometry">
            <mxPoint x="1230" y="790" as="targetPoint" />
          </mxGeometry>
        </mxCell>
        <mxCell id="WvZFkTVGj3BUT5jhODCM-15" value="hapus playlist" style="whiteSpace=wrap;html=1;" vertex="1" parent="1">
          <mxGeometry x="790" y="600" width="120" height="60" as="geometry" />
        </mxCell>
        <mxCell id="WvZFkTVGj3BUT5jhODCM-16" value="yes" style="edgeStyle=orthogonalEdgeStyle;rounded=0;orthogonalLoop=1;jettySize=auto;html=1;" edge="1" parent="1" source="WvZFkTVGj3BUT5jhODCM-18" target="WvZFkTVGj3BUT5jhODCM-20">
          <mxGeometry relative="1" as="geometry" />
        </mxCell>
        <mxCell id="WvZFkTVGj3BUT5jhODCM-17" value="" style="edgeStyle=orthogonalEdgeStyle;rounded=0;orthogonalLoop=1;jettySize=auto;html=1;" edge="1" parent="1" source="WvZFkTVGj3BUT5jhODCM-18" target="WvZFkTVGj3BUT5jhODCM-33">
          <mxGeometry relative="1" as="geometry" />
        </mxCell>
        <mxCell id="WvZFkTVGj3BUT5jhODCM-18" value="opsi = 2" style="rhombus;whiteSpace=wrap;html=1;" vertex="1" parent="1">
          <mxGeometry x="630" y="750" width="80" height="80" as="geometry" />
        </mxCell>
        <mxCell id="WvZFkTVGj3BUT5jhODCM-19" value="" style="edgeStyle=orthogonalEdgeStyle;rounded=0;orthogonalLoop=1;jettySize=auto;html=1;" edge="1" parent="1" source="WvZFkTVGj3BUT5jhODCM-20" target="WvZFkTVGj3BUT5jhODCM-21">
          <mxGeometry relative="1" as="geometry" />
        </mxCell>
        <mxCell id="WvZFkTVGj3BUT5jhODCM-20" value="pilih musik" style="shape=parallelogram;perimeter=parallelogramPerimeter;whiteSpace=wrap;html=1;fixedSize=1;" vertex="1" parent="1">
          <mxGeometry x="770" y="760" width="120" height="60" as="geometry" />
        </mxCell>
        <mxCell id="4s9rJYS3UdIpYFSd3ybi-3" style="edgeStyle=orthogonalEdgeStyle;rounded=0;orthogonalLoop=1;jettySize=auto;html=1;entryX=0.5;entryY=0;entryDx=0;entryDy=0;" edge="1" parent="1" source="WvZFkTVGj3BUT5jhODCM-21" target="4s9rJYS3UdIpYFSd3ybi-1">
          <mxGeometry relative="1" as="geometry" />
        </mxCell>
        <mxCell id="WvZFkTVGj3BUT5jhODCM-21" value="hapus musik" style="whiteSpace=wrap;html=1;" vertex="1" parent="1">
          <mxGeometry x="1020" y="760" width="120" height="60" as="geometry" />
        </mxCell>
        <mxCell id="WvZFkTVGj3BUT5jhODCM-22" value="no" style="edgeStyle=orthogonalEdgeStyle;rounded=0;orthogonalLoop=1;jettySize=auto;html=1;" edge="1" parent="1" source="WvZFkTVGj3BUT5jhODCM-23" target="WvZFkTVGj3BUT5jhODCM-26">
          <mxGeometry relative="1" as="geometry" />
        </mxCell>
        <mxCell id="WvZFkTVGj3BUT5jhODCM-23" value="Pilihan = 0" style="rhombus;whiteSpace=wrap;html=1;" vertex="1" parent="1">
          <mxGeometry x="60" y="460" width="80" height="80" as="geometry" />
        </mxCell>
        <mxCell id="WvZFkTVGj3BUT5jhODCM-24" value="A" style="shape=offPageConnector;whiteSpace=wrap;html=1;" vertex="1" parent="1">
          <mxGeometry x="200" y="470" width="80" height="80" as="geometry" />
        </mxCell>
        <mxCell id="WvZFkTVGj3BUT5jhODCM-25" value="yes" style="edgeStyle=orthogonalEdgeStyle;rounded=0;orthogonalLoop=1;jettySize=auto;html=1;entryX=0.024;entryY=0.39;entryDx=0;entryDy=0;entryPerimeter=0;" edge="1" parent="1" source="WvZFkTVGj3BUT5jhODCM-23" target="WvZFkTVGj3BUT5jhODCM-24">
          <mxGeometry relative="1" as="geometry" />
        </mxCell>
        <mxCell id="4s9rJYS3UdIpYFSd3ybi-2" style="edgeStyle=orthogonalEdgeStyle;rounded=0;orthogonalLoop=1;jettySize=auto;html=1;entryX=0;entryY=0.5;entryDx=0;entryDy=0;" edge="1" parent="1" source="WvZFkTVGj3BUT5jhODCM-26" target="4s9rJYS3UdIpYFSd3ybi-1">
          <mxGeometry relative="1" as="geometry" />
        </mxCell>
        <mxCell id="WvZFkTVGj3BUT5jhODCM-26" value="Opsi tidak valid" style="shape=parallelogram;perimeter=parallelogramPerimeter;whiteSpace=wrap;html=1;fixedSize=1;" vertex="1" parent="1">
          <mxGeometry x="40" y="980" width="120" height="60" as="geometry" />
        </mxCell>
        <mxCell id="WvZFkTVGj3BUT5jhODCM-27" value="" style="endArrow=classic;html=1;rounded=0;" edge="1" parent="1">
          <mxGeometry width="50" height="50" relative="1" as="geometry">
            <mxPoint x="250" y="370" as="sourcePoint" />
            <mxPoint x="330" y="370" as="targetPoint" />
          </mxGeometry>
        </mxCell>
        <mxCell id="WvZFkTVGj3BUT5jhODCM-28" value="" style="endArrow=classic;html=1;rounded=0;" edge="1" parent="1">
          <mxGeometry width="50" height="50" relative="1" as="geometry">
            <mxPoint x="370" y="310" as="sourcePoint" />
            <mxPoint x="450" y="310" as="targetPoint" />
          </mxGeometry>
        </mxCell>
        <mxCell id="WvZFkTVGj3BUT5jhODCM-29" value="" style="endArrow=classic;html=1;rounded=0;" edge="1" parent="1">
          <mxGeometry width="50" height="50" relative="1" as="geometry">
            <mxPoint x="690" y="375" as="sourcePoint" />
            <mxPoint x="770" y="375" as="targetPoint" />
          </mxGeometry>
        </mxCell>
        <mxCell id="WvZFkTVGj3BUT5jhODCM-30" value="" style="endArrow=classic;html=1;rounded=0;" edge="1" parent="1">
          <mxGeometry width="50" height="50" relative="1" as="geometry">
            <mxPoint x="590" y="460" as="sourcePoint" />
            <mxPoint x="670" y="460" as="targetPoint" />
          </mxGeometry>
        </mxCell>
        <mxCell id="WvZFkTVGj3BUT5jhODCM-31" value="" style="endArrow=classic;html=1;rounded=0;" edge="1" parent="1">
          <mxGeometry width="50" height="50" relative="1" as="geometry">
            <mxPoint x="745" y="760" as="sourcePoint" />
            <mxPoint x="825" y="760" as="targetPoint" />
          </mxGeometry>
        </mxCell>
        <mxCell id="WvZFkTVGj3BUT5jhODCM-32" value="" style="edgeStyle=orthogonalEdgeStyle;rounded=0;orthogonalLoop=1;jettySize=auto;html=1;" edge="1" parent="1" source="WvZFkTVGj3BUT5jhODCM-33" target="WvZFkTVGj3BUT5jhODCM-35">
          <mxGeometry relative="1" as="geometry" />
        </mxCell>
        <mxCell id="WvZFkTVGj3BUT5jhODCM-33" value="opsi tidak valid" style="shape=parallelogram;perimeter=parallelogramPerimeter;whiteSpace=wrap;html=1;fixedSize=1;" vertex="1" parent="1">
          <mxGeometry x="610" y="920" width="120" height="60" as="geometry" />
        </mxCell>
        <mxCell id="WvZFkTVGj3BUT5jhODCM-34" value="" style="endArrow=classic;html=1;rounded=0;" edge="1" parent="1">
          <mxGeometry width="50" height="50" relative="1" as="geometry">
            <mxPoint x="670" y="980" as="sourcePoint" />
            <mxPoint x="750" y="980" as="targetPoint" />
          </mxGeometry>
        </mxCell>
        <mxCell id="WvZFkTVGj3BUT5jhODCM-35" value="5" style="ellipse;whiteSpace=wrap;html=1;" vertex="1" parent="1">
          <mxGeometry x="830" y="910" width="80" height="80" as="geometry" />
        </mxCell>
        <mxCell id="WvZFkTVGj3BUT5jhODCM-36" style="edgeStyle=orthogonalEdgeStyle;rounded=0;orthogonalLoop=1;jettySize=auto;html=1;entryX=1;entryY=0.5;entryDx=0;entryDy=0;" edge="1" parent="1" source="WvZFkTVGj3BUT5jhODCM-37" target="WvZFkTVGj3BUT5jhODCM-9">
          <mxGeometry relative="1" as="geometry" />
        </mxCell>
        <mxCell id="WvZFkTVGj3BUT5jhODCM-37" value="5" style="ellipse;whiteSpace=wrap;html=1;" vertex="1" parent="1">
          <mxGeometry x="830" y="300" width="80" height="80" as="geometry" />
        </mxCell>
        <mxCell id="WvZFkTVGj3BUT5jhODCM-38" value="" style="endArrow=classic;html=1;rounded=0;" edge="1" parent="1">
          <mxGeometry width="50" height="50" relative="1" as="geometry">
            <mxPoint x="110" y="1038" as="sourcePoint" />
            <mxPoint x="190" y="1038" as="targetPoint" />
          </mxGeometry>
        </mxCell>
        <mxCell id="miRw38VFh6olI2t0pUHi-2" style="edgeStyle=orthogonalEdgeStyle;rounded=0;orthogonalLoop=1;jettySize=auto;html=1;entryX=0.5;entryY=0;entryDx=0;entryDy=0;" edge="1" parent="1" source="miRw38VFh6olI2t0pUHi-1" target="WvZFkTVGj3BUT5jhODCM-3">
          <mxGeometry relative="1" as="geometry" />
        </mxCell>
        <mxCell id="miRw38VFh6olI2t0pUHi-1" value="C" style="shape=offPageConnector;whiteSpace=wrap;html=1;" vertex="1" parent="1">
          <mxGeometry x="60" y="110" width="80" height="80" as="geometry" />
        </mxCell>
        <mxCell id="4s9rJYS3UdIpYFSd3ybi-1" value="B" style="shape=offPageConnector;whiteSpace=wrap;html=1;" vertex="1" parent="1">
          <mxGeometry x="1190" y="970" width="80" height="80" as="geometry" />
        </mxCell>
      </root>
    </mxGraphModel>
  </diagram>
</mxfile>
